<svg width="792" height="792" viewBox="0 0 792 792" fill="none" xmlns="http://www.w3.org/2000/svg">
    <path d="M256.192 420V375.2H258.368V418.016H284.608V420H256.192ZM304.336 420.192C301.221 420.192 298.426 419.488 295.952 418.08C293.52 416.629 291.578 414.624 290.128 412.064C288.72 409.504 288.016 406.603 288.016 403.36C288.016 400.075 288.72 397.173 290.128 394.656C291.578 392.139 293.52 390.155 295.952 388.704C298.426 387.253 301.221 386.528 304.336 386.528C307.45 386.528 310.245 387.253 312.72 388.704C315.194 390.155 317.136 392.139 318.544 394.656C319.952 397.173 320.656 400.075 320.656 403.36C320.656 406.603 319.952 409.504 318.544 412.064C317.136 414.624 315.194 416.629 312.72 418.08C310.245 419.488 307.45 420.192 304.336 420.192ZM304.336 418.272C307.066 418.272 309.498 417.653 311.632 416.416C313.808 415.136 315.493 413.365 316.688 411.104C317.925 408.843 318.544 406.261 318.544 403.36C318.544 400.416 317.925 397.835 316.688 395.616C315.493 393.355 313.808 391.605 311.632 390.368C309.498 389.131 307.066 388.512 304.336 388.512C301.648 388.512 299.237 389.131 297.104 390.368C294.97 391.605 293.264 393.355 291.984 395.616C290.746 397.835 290.128 400.416 290.128 403.36C290.128 406.261 290.746 408.843 291.984 411.104C293.264 413.365 294.97 415.136 297.104 416.416C299.237 417.653 301.648 418.272 304.336 418.272ZM352.162 420V412.256L352.098 411.104V398.496C352.098 395.211 351.223 392.715 349.474 391.008C347.724 389.301 345.186 388.448 341.858 388.448C339.426 388.448 337.207 388.875 335.202 389.728C333.196 390.539 331.468 391.605 330.018 392.928L328.866 391.392C330.444 389.899 332.386 388.725 334.69 387.872C336.994 386.976 339.404 386.528 341.922 386.528C345.89 386.528 348.919 387.552 351.01 389.6C353.143 391.605 354.21 394.571 354.21 398.496V420H352.162ZM339.81 420.192C337.292 420.192 335.138 419.808 333.345 419.04C331.596 418.272 330.252 417.184 329.314 415.776C328.375 414.325 327.906 412.683 327.906 410.848C327.906 409.227 328.29 407.733 329.058 406.368C329.826 404.96 331.084 403.851 332.834 403.04C334.626 402.187 337.015 401.76 340.002 401.76H352.866V403.488H340.002C336.375 403.488 333.794 404.171 332.258 405.536C330.764 406.901 330.018 408.629 330.018 410.72C330.018 413.067 330.892 414.944 332.642 416.352C334.391 417.717 336.823 418.4 339.938 418.4C343.01 418.4 345.548 417.717 347.554 416.352C349.559 414.944 351.074 412.96 352.098 410.4L352.802 411.808C351.948 414.325 350.412 416.352 348.194 417.888C345.975 419.424 343.18 420.192 339.81 420.192ZM380.522 420.192C377.45 420.192 374.676 419.488 372.202 418.08C369.77 416.629 367.828 414.645 366.378 412.128C364.97 409.568 364.266 406.645 364.266 403.36C364.266 400.032 364.97 397.131 366.378 394.656C367.828 392.139 369.77 390.155 372.202 388.704C374.676 387.253 377.45 386.528 380.522 386.528C383.508 386.528 386.196 387.232 388.586 388.64C390.975 390.048 392.852 392.011 394.218 394.528C395.626 397.045 396.33 399.989 396.33 403.36C396.33 406.688 395.626 409.632 394.218 412.192C392.852 414.752 390.975 416.736 388.586 418.144C386.196 419.509 383.508 420.192 380.522 420.192ZM380.586 418.272C383.316 418.272 385.748 417.653 387.882 416.416C390.015 415.136 391.7 413.365 392.938 411.104C394.175 408.843 394.794 406.261 394.794 403.36C394.794 400.416 394.175 397.835 392.938 395.616C391.7 393.355 390.015 391.605 387.882 390.368C385.748 389.131 383.316 388.512 380.586 388.512C377.898 388.512 375.487 389.131 373.354 390.368C371.22 391.605 369.514 393.355 368.234 395.616C366.996 397.835 366.378 400.416 366.378 403.36C366.378 406.261 366.996 408.843 368.234 411.104C369.514 413.365 371.22 415.136 373.354 416.416C375.487 417.653 377.898 418.272 380.586 418.272ZM394.858 420V408.352L395.434 403.296L394.794 398.24V372.512H396.906V420H394.858ZM411.104 420V386.784H413.216V420H411.104ZM412.128 378.08C411.573 378.08 411.083 377.867 410.656 377.44C410.229 377.013 410.016 376.544 410.016 376.032C410.016 375.435 410.229 374.944 410.656 374.56C411.083 374.133 411.573 373.92 412.128 373.92C412.725 373.92 413.216 374.133 413.6 374.56C414.027 374.944 414.24 375.413 414.24 375.968C414.24 376.523 414.027 377.013 413.6 377.44C413.216 377.867 412.725 378.08 412.128 378.08ZM443.097 386.528C445.827 386.528 448.174 387.061 450.137 388.128C452.142 389.195 453.699 390.773 454.809 392.864C455.918 394.912 456.472 397.451 456.472 400.48V420H454.361V400.608C454.361 396.64 453.358 393.632 451.353 391.584C449.347 389.536 446.531 388.512 442.905 388.512C440.131 388.512 437.742 389.067 435.737 390.176C433.731 391.285 432.195 392.864 431.129 394.912C430.062 396.96 429.529 399.349 429.529 402.08V420H427.417V386.784H429.465V396.128L429.209 395.552C430.233 392.779 431.918 390.581 434.265 388.96C436.654 387.339 439.598 386.528 443.097 386.528ZM483.86 432.608C480.873 432.608 478.036 432.117 475.348 431.136C472.702 430.197 470.569 428.896 468.948 427.232L470.164 425.632C471.87 427.253 473.897 428.491 476.244 429.344C478.59 430.24 481.108 430.688 483.796 430.688C488.446 430.688 491.881 429.579 494.1 427.36C496.318 425.184 497.428 421.749 497.428 417.056V407.008L498.068 402.656L497.492 398.304V386.784H499.54V416.8C499.54 422.219 498.238 426.208 495.636 428.768C493.033 431.328 489.108 432.608 483.86 432.608ZM482.964 418.848C479.849 418.848 477.054 418.165 474.58 416.8C472.105 415.392 470.142 413.472 468.692 411.04C467.241 408.608 466.516 405.813 466.516 402.656C466.516 399.499 467.241 396.704 468.692 394.272C470.142 391.84 472.105 389.941 474.58 388.576C477.054 387.211 479.849 386.528 482.964 386.528C486.036 386.528 488.766 387.211 491.156 388.576C493.545 389.899 495.444 391.776 496.852 394.208C498.26 396.597 498.964 399.413 498.964 402.656C498.964 405.899 498.26 408.736 496.852 411.168C495.444 413.6 493.545 415.499 491.156 416.864C488.766 418.187 486.036 418.848 482.964 418.848ZM483.028 416.928C485.844 416.928 488.318 416.331 490.452 415.136C492.628 413.941 494.334 412.256 495.572 410.08C496.809 407.904 497.428 405.429 497.428 402.656C497.428 399.84 496.809 397.387 495.572 395.296C494.334 393.163 492.628 391.499 490.452 390.304C488.318 389.109 485.844 388.512 483.028 388.512C480.297 388.512 477.844 389.109 475.668 390.304C473.492 391.499 471.764 393.163 470.484 395.296C469.246 397.387 468.628 399.84 468.628 402.656C468.628 405.429 469.246 407.904 470.484 410.08C471.764 412.256 473.492 413.941 475.668 415.136C477.844 416.331 480.297 416.928 483.028 416.928ZM512.705 420.192C512.15 420.192 511.66 420 511.233 419.616C510.806 419.189 510.593 418.677 510.593 418.08C510.593 417.483 510.806 416.992 511.233 416.608C511.66 416.181 512.15 415.968 512.705 415.968C513.302 415.968 513.793 416.181 514.177 416.608C514.604 416.992 514.817 417.483 514.817 418.08C514.817 418.677 514.604 419.189 514.177 419.616C513.793 420 513.302 420.192 512.705 420.192ZM524.893 420.192C524.338 420.192 523.847 420 523.421 419.616C522.994 419.189 522.781 418.677 522.781 418.08C522.781 417.483 522.994 416.992 523.421 416.608C523.847 416.181 524.338 415.968 524.893 415.968C525.49 415.968 525.981 416.181 526.365 416.608C526.791 416.992 527.005 417.483 527.005 418.08C527.005 418.677 526.791 419.189 526.365 419.616C525.981 420 525.49 420.192 524.893 420.192ZM537.08 420.192C536.525 420.192 536.035 420 535.608 419.616C535.181 419.189 534.968 418.677 534.968 418.08C534.968 417.483 535.181 416.992 535.608 416.608C536.035 416.181 536.525 415.968 537.08 415.968C537.677 415.968 538.168 416.181 538.552 416.608C538.979 416.992 539.192 417.483 539.192 418.08C539.192 418.677 538.979 419.189 538.552 419.616C538.168 420 537.677 420.192 537.08 420.192Z" fill="white"/>

    <circle cx="395.5" cy="396.5" r="267.5" stroke="#6b26d9" stroke-width="10" fill="none" />
    <circle cx="395.5" cy="396.5" r="307.5" stroke="#2f115f" stroke-width="10" stroke-dasharray="20 20" fill="none">
        <animateTransform
                attributeName="transform"
                type="rotate"
                from="360 395.5 396.5"
                to="0 395.5 396.5"
                dur="30s"
                repeatCount="indefinite" />
    </circle>
    <circle cx="396" cy="396" r="349" stroke="#1a0934" stroke-width="10" stroke-dasharray="20 20" fill="none">
        <animateTransform
                attributeName="transform"
                type="rotate"
                from="0 396 396"
                to="360 396 396"
                dur="30s"
                repeatCount="indefinite" />
    </circle>
</svg>
